<?xml version="1.0" encoding="utf-8"?>
<!-- Generator: Adobe Illustrator 22.1.0, SVG Export Plug-In . SVG Version: 6.00 Build 0)  -->
<svg version="1.1" id="Layer_1" xmlns="http://www.w3.org/2000/svg" x="0px" y="0px"
     viewBox="0 0 32 32" style="enable-background:new 0 0 32 32;" xml:space="preserve">
<style type="text/css">
	.st0{fill:#DD2222;}
	.st1{fill:url(#SVGID_1_);}
	.st2{fill:url(#SVGID_2_);}
	.st3{fill:url(#SVGID_3_);}
	.st4{fill:url(#SVGID_4_);}
	.st5{fill:url(#SVGID_5_);}
	.st6{fill:url(#SVGID_6_);}
	.st7{fill:#E02B2B;}
	.st8{fill:url(#SVGID_7_);}
	.st9{fill:url(#SVGID_8_);}
	.st10{fill:#D97871;}
</style>
<g>
	<path class="st0" d="M5.7291,29.36053l-1.39951-0.61246c0.14148-0.76956,0.52885-2.33303,1.09772-4.42909
		c0.02835-0.10443,0.05706-0.20976,0.08609-0.31601c0.14001-0.51262,0.29071-1.05623,0.44791-1.61579
		c0.11062-0.39354,0.2243-0.79447,0.33792-1.19172c0.75939-2.65425,1.74568-5.51455,2.46583-7.60307
		c0.1068-0.30973,0.20868-0.60522,0.30427-0.88385c1.47844-4.30885,3.9689-8.99067,4.28973-9.58707h5.70911
		c0.21813,0.35345,1.44604,2.41039,3.27488,6.77443c0.06018,0.1437,0.12371,0.29323,0.18951,0.44811
		c0.30006,0.70617,0.64015,1.50657,0.93427,2.38085c0.19789,0.58795,0.43358,1.19603,0.68311,1.83982
		c0.35707,0.92123,0.72633,1.87384,1.00466,2.82731c0.36758,1.25885,0.75144,2.62053,1.1736,4.16293
		c0.35141,1.28403,0.65915,2.4364,0.90644,3.3623c0.31271,1.17023,0.51928,1.94336,0.5834,2.11507
		c0.12261,0.32836,0.4001,1.42761,0.4882,1.78081l-1.36744,0.43623l-0.0037,0.00178l-3.12715,0.25106l-1.58254-1.07579
		c-0.00528-0.24248-0.03966-1.13638-0.26126-2.22989c-0.20968-1.03445-0.48796-2.26418-1.09898-4.24081l-0.02964-0.09586
		l-0.0997,0.01094c-2.96254,0.32548-6.04358,0.75453-9.15757,1.27535l-0.08308,0.01393l-0.01611,0.08275
		c-0.06412,0.3296-0.12207,0.63713-0.17159,0.89982c-0.07328,0.38898-0.13119,0.69617-0.15823,0.80284
		c-0.10525,0.41547-0.17557,2.88298-0.18752,3.33066L8.86088,29.5761L5.7291,29.36053z M16.30957,10.08445
		c-0.13232,0-0.38034,0.07359-0.55472,0.56638c-0.74671,2.11037-1.35145,3.66045-1.83735,4.90594
		c-0.26022,0.66698-0.48495,1.24304-0.66232,1.73115l-0.11061,0.30438l0.2835-0.15655
		c0.17672-0.09757,0.35522-0.19552,0.53539-0.29368c1.40653-0.76635,2.76779-1.46659,4.04582-2.08127
		c0.10498-0.05052,0.2101-0.10083,0.31525-0.15076l0.09956-0.04731l-0.03746-0.10369
		c-0.74492-2.06272-1.38291-3.78483-1.55147-4.18781C16.658,10.1477,16.42982,10.08445,16.30957,10.08445z"/>

		<radialGradient id="SVGID_1_" cx="-9.70046" cy="292.27823" r="22.658" gradientTransform="matrix(-0.35595 0.92217 0.68451 0.25729 -187.33022 -58.07415)" gradientUnits="userSpaceOnUse">
		<stop  offset="0" style="stop-color:#69252A"/>
		<stop  offset="0.14883" style="stop-color:#803639"/>
		<stop  offset="0.45899" style="stop-color:#BB605E"/>
		<stop  offset="0.73565" style="stop-color:#F48A82"/>
	</radialGradient>
	<path class="st1" d="M15.87617,10.69138c0.21432-0.60574,0.60796-0.66087,0.85374-0.07326
		c0.17267,0.41286,0.8215,2.16692,1.5493,4.18219c0.75642-0.38934,1.10498-0.60917,1.77254-0.98287
		c-0.75278-1.68524-3.07723-6.55469-3.359-6.97177c-0.29693-0.4395-0.29693-0.7325-0.66807-0.07326
		c-0.36263,0.64422-5.70865,11.569-6.52721,13.05947c1.19387-0.7241,2.18918-1.45039,3.82764-2.35505
		C13.82145,16.11091,14.71499,13.97315,15.87617,10.69138z"/>

		<radialGradient id="SVGID_2_" cx="-19.03176" cy="282.67084" r="22.36058" gradientTransform="matrix(-0.36844 0.91738 0.66558 0.2603 -182.16972 -37.8039)" gradientUnits="userSpaceOnUse">
		<stop  offset="0.00362" style="stop-color:#793835"/>
		<stop  offset="0.14137" style="stop-color:#904743"/>
		<stop  offset="0.4286" style="stop-color:#CB6E68"/>
		<stop  offset="0.61462" style="stop-color:#F48A82"/>
	</radialGradient>
	<path class="st2" d="M11.24344,23.32683c-1.22772,0.20794-2.1513,0.43835-3.48043,0.69346
		c-0.00974,0.02573-0.01938,0.05136-0.02887,0.07596c-0.3358,0.87365-1.65663,4.22458-1.98809,5.38672l3.08852,0.21264
		C9.16942,28.77935,10.15304,26.1072,11.24344,23.32683z"/>

		<radialGradient id="SVGID_3_" cx="47.68062" cy="210.04938" r="22.83745" gradientTransform="matrix(0.25765 0.95348 0.72177 -0.18992 -143.0435 7.42929)" gradientUnits="userSpaceOnUse">
		<stop  offset="0.00362" style="stop-color:#793835"/>
		<stop  offset="0.12872" style="stop-color:#803C39"/>
		<stop  offset="0.30728" style="stop-color:#934945"/>
		<stop  offset="0.5179" style="stop-color:#B15E58"/>
		<stop  offset="0.75118" style="stop-color:#DC7A73"/>
		<stop  offset="0.86825" style="stop-color:#F48A82"/>
	</radialGradient>
	<path class="st3" d="M23.75592,21.89878c-0.02323-0.05348-0.05832-0.1315-0.10299-0.22942
		c-0.92384,0.0785-1.60639,0.18111-2.82716,0.31456c1.17771,2.93351,2.37471,5.97863,2.95204,7.64002l0.00411,0.00278
		l3.19196-0.25632l0.01647-0.00785c-0.12883-0.41945-0.45845-1.45489-0.83306-2.33622
		C25.67485,25.89096,24.08994,22.66788,23.75592,21.89878z"/>

		<linearGradient id="SVGID_4_" gradientUnits="userSpaceOnUse" x1="6.53783" y1="39.47021" x2="11.93134" y2="27.82339" gradientTransform="matrix(1 0 0 -1 0 58)">
		<stop  offset="0" style="stop-color:#512427"/>
		<stop  offset="0.95784" style="stop-color:#BE2C34"/>
	</linearGradient>
	<path class="st4" d="M8.83456,29.69561L8.89839,29.7l2.18987-1.35512c0,0,0.07423-2.93005,0.18559-3.36956
		c0.0462-0.18228,0.169-0.87492,0.33129-1.70935c-0.12001,0.02003-0.24058,0.04038-0.36171,0.06087
		C10.15304,26.1072,9.16942,28.77935,8.83456,29.69561z"/>

		<linearGradient id="SVGID_5_" gradientUnits="userSpaceOnUse" x1="25.59421" y1="21.03744" x2="20.7317" y2="35.54523" gradientTransform="matrix(1 0 0 -1 0 58)">
		<stop  offset="0" style="stop-color:#512427"/>
		<stop  offset="0.95784" style="stop-color:#BE2C34"/>
	</linearGradient>
	<path class="st5" d="M21.85192,26.22062c0.25978,1.28187,0.25978,2.27073,0.25978,2.27073l1.66612,1.1326
		c-0.57733-1.66138-1.77433-4.7065-2.95204-7.64001c-0.02333,0.00258-0.04645,0.00511-0.06985,0.00761
		C21.3669,23.96811,21.6449,25.19941,21.85192,26.22062z"/>

		<linearGradient id="SVGID_6_" gradientUnits="userSpaceOnUse" x1="19.63827" y1="59.00753" x2="2.74038" y2="35.20772" gradientTransform="matrix(1 0 0 -1 0 58)">
		<stop  offset="0" style="stop-color:#DD2222"/>
		<stop  offset="0.04251" style="stop-color:#D32424"/>
		<stop  offset="0.21114" style="stop-color:#AE292D"/>
		<stop  offset="0.34818" style="stop-color:#982D32"/>
		<stop  offset="0.43567" style="stop-color:#902E34"/>
		<stop  offset="0.98085" style="stop-color:#682427"/>
	</linearGradient>
	<path class="st6" d="M13.29341,3c0,0-2.73618,5.01769-4.33215,9.66911c-0.75505,2.20058-1.90154,5.45036-2.77201,8.49294
		c-0.115,0.40206-0.22793,0.80036-0.3381,1.19226c-0.15581,0.55462-0.30599,1.09627-0.44811,1.61662
		c0.06081-0.10151,0.27381-0.69788,0.64422-1.69463c0.14469-0.38919,0.31339-0.83944,0.50628-1.34496
		c1.42188-3.72602,4.16315-10.45833,8.34435-17.93133L13.29341,3L13.29341,3z"/>
	<path class="st7" d="M26.45216,21.52283c-0.35718-1.30499-0.75666-2.73501-1.17415-4.16485
		c-0.47245-1.61838-1.20612-3.23625-1.68917-4.67183c-0.36102-1.07282-0.79453-2.04391-1.12694-2.8372
		C20.42053,4.97779,19.14225,3,19.14225,3h-1.45317c0.73154,1.39067,2.7455,5.28855,4.93461,10.1271
		c0.62334,1.37768,1.26078,2.8315,1.88692,4.32547c0.56162,1.34016,1.11408,2.71247,1.63894,4.09102
		c0.42442,1.11472,0.83076,2.23343,1.20928,3.34229C27.11279,23.96465,26.80286,22.80419,26.45216,21.52283z"/>

		<radialGradient id="SVGID_7_" cx="49.49696" cy="225.4315" r="33.61588" gradientTransform="matrix(0.24492 0.96954 0.64084 -0.16188 -134.42807 -4.81134)" gradientUnits="userSpaceOnUse">
		<stop  offset="0" style="stop-color:#DD2222"/>
		<stop  offset="0.73786" style="stop-color:#942325"/>
		<stop  offset="0.86901" style="stop-color:#822326"/>
		<stop  offset="1" style="stop-color:#752326"/>
	</radialGradient>
	<path class="st8" d="M27.93868,26.9898c-0.06179-0.16536-0.27035-0.94559-0.57984-2.10391
		c-0.37852-1.10886-0.78485-2.22757-1.20928-3.34229c-0.52487-1.37856-1.07733-2.75086-1.63894-4.09102
		c-0.62615-1.49397-1.26359-2.94779-1.88692-4.32547c-2.18911-4.83855-4.20306-8.73643-4.93461-10.1271h-2.7912
		c-4.1812,7.473-6.92247,14.20531-8.34435,17.93133c-0.1929,0.50553-0.36159,0.95578-0.50628,1.34496
		c-0.3704,0.99674-0.58341,1.59312-0.64422,1.69463c-0.02906,0.10629-0.05775,0.21172-0.08617,0.31621
		C4.75563,26.35518,4.33283,28.04771,4.2,28.82101l1.5065,0.65926l0.03954,0.0027c0.33147-1.16213,1.65229-4.51307,1.98809-5.38672
		c0.00949-0.0246,0.01913-0.05023,0.02887-0.07596c0.22151-0.58604,0.59142-1.45787,0.90847-2.30901
		c0.30868-0.82884,0.79269-1.81883,0.82599-1.87941C10.30681,18.35815,15.6665,7.4418,16.02467,6.7724
		c0.16447-0.3075,0.38658-0.39545,0.66807,0.07326c0.24911,0.41469,2.59933,5.2711,3.359,6.97177
		c-0.74825,0.37939-8.86323,4.68055-10.55428,6.01443c-0.01918,0.03493-0.57441,1.20393-0.82599,1.87941
		c1.64195-0.64889,7.22993-2.82205,13.10479-3.97523c-0.00546-0.00158,0,0,0,0c0.75323,1.61737,1.56989,3.26139,1.87666,3.93331
		c0.04467,0.09792,0.07977,0.17594,0.10299,0.22942c0.33402,0.76912,1.91893,3.99218,2.40137,5.12756
		c0.3746,0.88133,0.70423,1.91677,0.83306,2.33622l1.46799-0.4683C28.45835,28.89425,28.08888,27.39206,27.93868,26.9898z"/>

		<linearGradient id="SVGID_8_" gradientUnits="userSpaceOnUse" x1="2.82984" y1="35.20335" x2="27.81566" y2="39.09099" gradientTransform="matrix(1 0 0 -1 0 58)">
		<stop  offset="0" style="stop-color:#512427"/>
		<stop  offset="0.24982" style="stop-color:#752326"/>
		<stop  offset="0.48445" style="stop-color:#942325"/>
		<stop  offset="0.61481" style="stop-color:#982325"/>
		<stop  offset="0.73113" style="stop-color:#A22324"/>
		<stop  offset="0.84209" style="stop-color:#B52324"/>
		<stop  offset="0.94908" style="stop-color:#CE2223"/>
		<stop  offset="1" style="stop-color:#DD2222"/>
	</linearGradient>
	<path class="st9" d="M21.77626,17.73605c-0.77665,0.13661-6.68472,1.26115-13.10479,3.97524
		C8.35963,22.54843,7.9892,23.4219,7.763,24.0203c1.32913-0.25511,2.25271-0.48552,3.48043-0.69346
		c0.12113-0.02048,0.2417-0.04082,0.36171-0.06087c3.55186-0.59407,6.64497-0.99918,9.15078-1.27443
		c0.0234-0.0025,0.04652-0.00504,0.06985-0.00762c1.22077-0.13346,1.90332-0.23607,2.82716-0.31456
		C23.34615,20.99744,22.52949,19.35342,21.77626,17.73605z"/>
	<path class="st10" d="M9.62503,19.75307c0.19968-0.15052,0.40509-0.29354,0.61296-0.43269
		c0.10388-0.06968,0.20899-0.13747,0.31357-0.20611l0.31655-0.20149c0.2121-0.13264,0.4253-0.2635,0.63928-0.39306
		c0.21411-0.12934,0.42903-0.25734,0.64436-0.38465l0.64801-0.37843l0.65054-0.37403
		c0.43445-0.24803,0.86989-0.49431,1.30691-0.73775c0.87423-0.48652,1.75186-0.96684,2.63077-1.44467l1.31897-0.71548
		c0.43953-0.23852,0.87977-0.4762,1.3167-0.71822l-0.02501,0.07464c-0.23874-0.52525-0.48764-1.04695-0.73615-1.56858
		c-0.24917-0.52139-0.50045-1.04187-0.75311-1.56169c-0.50498-1.03983-1.01436-2.07759-1.525-3.11478l-0.19153-0.38896
		L16.69713,7.0126l-0.0478-0.09748l-0.01195-0.02437l-0.00597-0.01219c-0.0014-0.00292,0.0019,0.00354-0.0011-0.00198
		L16.62696,6.8707c-0.00896-0.01593-0.01795-0.03167-0.02637-0.0445c-0.03474-0.05546-0.07684-0.10798-0.12445-0.1452
		c-0.0477-0.03753-0.10069-0.05872-0.15215-0.05488c-0.05156,0.00339-0.10358,0.03115-0.14867,0.07321
		c-0.04538,0.04182-0.08368,0.09643-0.11605,0.15486c-0.00842,0.01441-0.01562,0.02979-0.02338,0.04475l-0.02397,0.04877
		l-0.04774,0.09731l-0.09703,0.19455L15.6718,7.62699l-0.39291,0.77312c-0.52704,1.02904-1.05324,2.05832-1.5756,3.08957
		c-0.52237,1.03123-1.041,2.06433-1.55456,3.09991l-0.76926,1.55389c-0.25493,0.51869-0.50908,1.03778-0.76008,1.55837
		c-0.2519,0.52017-0.50037,1.04196-0.74725,1.56451C9.62659,19.78952,9.381,20.31269,9.1402,20.83807
		c-0.2419,0.52489-0.47693,1.05288-0.70876,1.58232c-0.2287,0.53075-0.45499,1.06263-0.66844,1.59993
		c0.20284-0.54135,0.41721-1.07846,0.63926-1.61235c0.22398-0.53305,0.45123-1.06482,0.68538-1.59352
		c0.11554-0.26505,0.23514-0.52826,0.35252-0.7925l0.36-0.78909c0.24222-0.52504,0.48604-1.04935,0.73329-1.57202
		c0.24636-0.52311,0.49586-1.04471,0.74615-1.56592c0.25112-0.52081,0.50171-1.0419,0.75768-1.56033
		c0.51062-1.03751,1.02629-2.07251,1.54568-3.10559c0.51937-1.03309,1.04259-2.06424,1.56652-3.09484l0.39415-0.77221
		l0.19622-0.38626l0.09705-0.19314l0.04803-0.09717l0.02399-0.04844c0.00885-0.01713,0.01711-0.03444,0.02689-0.05126
		c0.0378-0.0675,0.08298-0.13334,0.14401-0.1897c0.05991-0.05569,0.14091-0.10356,0.23495-0.10977
		c0.04636-0.00336,0.09322,0.00489,0.13516,0.02052c0.04213,0.01568,0.07955,0.03851,0.11253,0.06442
		c0.06604,0.05251,0.11482,0.11539,0.15666,0.18201c0.01121,0.01751,0.02003,0.03322,0.02877,0.04877l0.00334,0.00589
		c-0.00075-0.00161,0.0048,0.00878,0.00529,0.00996l0.00593,0.01216l0.01186,0.02432l0.04741,0.09727l0.09525,0.19469
		l0.1906,0.38941c0.50823,1.03851,1.01525,2.07768,1.51792,3.11903c0.2515,0.52059,0.50165,1.04188,0.74975,1.56422
		c0.24839,0.52226,0.49429,1.04558,0.72957,1.57485l0.02184,0.04913l-0.04686,0.02552
		c-0.43981,0.23958-0.88149,0.47403-1.3228,0.70953l-1.32386,0.70613c-0.88209,0.47155-1.76283,0.94555-2.64015,1.42574
		l-0.65798,0.36015l-0.65646,0.36291l-0.65452,0.36636L12.172,18.16997c-0.21666,0.12476-0.43293,0.2502-0.64841,0.37701
		c-0.21534,0.12702-0.42991,0.25534-0.64339,0.38545l-0.31936,0.19653c-0.10553,0.06697-0.21164,0.1331-0.31651,0.20111
		C10.03447,19.46591,9.82709,19.60559,9.62503,19.75307z"/>
	<path class="st10" d="M8.73419,21.72374l0.79271-0.3168l0.39677-0.15732l0.19838-0.07866l0.19944-0.07602l0.79804-0.30369
		c0.13316-0.05022,0.26574-0.10214,0.3994-0.15097l0.40146-0.14525l0.80328-0.28971l0.80714-0.27889
		c0.13463-0.04618,0.26883-0.09366,0.40383-0.13876l0.40547-0.13393l0.4055-0.13394c0.13511-0.04482,0.27024-0.0896,0.40625-0.13168
		l0.81551-0.25398l0.81875-0.24352c0.13628-0.0412,0.27332-0.07983,0.41041-0.11828l0.41109-0.11599l0.20555-0.05799
		l0.20627-0.05542l0.41264-0.11054c0.13736-0.03753,0.27535-0.07273,0.41346-0.10748l0.4141-0.10513
		c0.13812-0.03472,0.27688-0.06693,0.41529-0.10052c0.1385-0.03322,0.27685-0.06709,0.41597-0.09786l0.41716-0.09287
		l0.41831-0.08791c0.27948-0.05577,0.55927-0.11081,0.84025-0.15917l0.04201-0.00723l0.01781,0.0384
		c0.35992,0.77616,0.72909,1.54821,1.09993,2.31962c0.18501,0.38592,0.37224,0.7708,0.55406,1.15856
		c0.09091,0.19385,0.18201,0.38786,0.26809,0.58462l0.12967,0.29361l0.13296,0.29138
		c0.35843,0.77682,0.72865,1.54883,1.08923,2.32522l0.53874,1.16569c0.17785,0.38934,0.35371,0.77977,0.51815,1.17498
		c-0.08702-0.19553-0.17653-0.38988-0.26783-0.5834l-0.27497-0.58005l-0.55902-1.15581l-0.56089-1.155
		c-0.18642-0.38531-0.37292-0.77054-0.5565-1.1575l-0.13669-0.29124l-0.13283-0.29226
		c-0.08757-0.19446-0.18047-0.38692-0.27335-0.57957l-0.56034-1.15501c-0.37363-0.77022-0.74575-1.54137-1.10881-2.31705
		l0.0598,0.03116c-0.27971,0.04916-0.55815,0.10496-0.83652,0.16154l-0.41674,0.08912l-0.41581,0.09368
		c-0.13884,0.03019-0.27699,0.0635-0.41529,0.09616c-0.13822,0.03303-0.27675,0.06466-0.41471,0.09883l-0.41363,0.10346
		c-0.13795,0.0342-0.27579,0.06884-0.41304,0.10583l-0.41229,0.10889l-0.20611,0.0546l-0.20542,0.05718l-0.41085,0.11435
		c-0.13701,0.03791-0.27397,0.07599-0.41021,0.11665l-0.81847,0.24029l-0.8154,0.25071
		c-0.13628,0.04058-0.27172,0.08387-0.40715,0.1272l-0.40646,0.12946L13.96126,19.868
		c-0.13535,0.04362-0.2699,0.08963-0.40491,0.13433l-0.80941,0.27006l-0.80575,0.28093l-0.40296,0.1403
		c-0.13443,0.04648-0.26773,0.09601-0.40166,0.14388l-0.80279,0.28957l-0.20068,0.07251l-0.19973,0.07519l-0.39946,0.15037
		L8.73419,21.72374z"/>
</g>
</svg>
